<svg width="32" height="32" viewBox="0 0 32 32" fill="none" xmlns="http://www.w3.org/2000/svg">
<g clip-path="url(#clip0)">
<g clip-path="url(#clip1)">
<path d="M13.6667 23.8256H18.3334C18.3334 24.4349 18.0875 25.0193 17.65 25.4502C17.2124 25.881 16.6189 26.1231 16 26.1231C15.3812 26.1231 14.7877 25.881 14.3501 25.4502C13.9125 25.0193 13.6667 24.4349 13.6667 23.8256ZM24.1667 20.9538C24.1667 21.4108 23.9823 21.8491 23.6541 22.1722C23.326 22.4954 22.8808 22.6769 22.4167 22.6769H9.58337C9.11925 22.6769 8.67413 22.4954 8.34594 22.1722C8.01775 21.8491 7.83337 21.4108 7.83337 20.9538C7.83337 20.4968 8.01775 20.0586 8.34594 19.7354C8.67413 19.4123 9.11925 19.2307 9.58337 19.2307H10.1667V14.6359C10.1669 13.312 10.6314 12.0288 11.4818 11.0034C12.3321 9.97789 13.516 9.27305 14.8334 9.00804V7.74357C14.8334 7.43891 14.9563 7.14673 15.1751 6.9313C15.3939 6.71587 15.6906 6.59485 16 6.59485C16.3095 6.59485 16.6062 6.71587 16.825 6.9313C17.0438 7.14673 17.1667 7.43891 17.1667 7.74357V9.00804C18.484 9.27305 19.668 9.97789 20.5183 11.0034C21.3687 12.0288 21.8332 13.312 21.8334 14.6359V19.2307H22.4167C22.8808 19.2307 23.326 19.4123 23.6541 19.7354C23.9823 20.0586 24.1667 20.4968 24.1667 20.9538Z" fill="#4F4C61"/>
</g>
</g>
<defs>
<clipPath id="clip0">
<rect width="32" height="32" fill="white"/>
</clipPath>
<clipPath id="clip1">
<rect width="28" height="34.4615" fill="white" transform="translate(2 2)"/>
</clipPath>
</defs>
</svg>
