<svg width="32" height="32" viewBox="0 0 32 32" fill="none" xmlns="http://www.w3.org/2000/svg">
<g clip-path="url(#clip0_4401_33)">
<g clip-path="url(#clip1_4401_33)">
<path d="M13.25 24.2231H18.75C18.75 24.9412 18.4603 25.6299 17.9445 26.1377C17.4288 26.6455 16.7293 26.9308 16 26.9308C15.2707 26.9308 14.5712 26.6455 14.0555 26.1377C13.5397 25.6299 13.25 24.9412 13.25 24.2231ZM25.625 20.8385C25.625 21.3771 25.4077 21.8936 25.0209 22.2745C24.6341 22.6553 24.1095 22.8692 23.5625 22.8692H8.4375C7.89049 22.8692 7.36589 22.6553 6.97909 22.2745C6.5923 21.8936 6.375 21.3771 6.375 20.8385C6.375 20.2999 6.5923 19.7834 6.97909 19.4025C7.36589 19.0217 7.89049 18.8077 8.4375 18.8077H9.125V13.3923C9.12521 11.8321 9.6727 10.3198 10.6749 9.11116C11.6771 7.90256 13.0724 7.07186 14.625 6.75952V5.26925C14.625 4.91019 14.7699 4.56583 15.0277 4.31194C15.2856 4.05804 15.6353 3.91541 16 3.91541C16.3647 3.91541 16.7144 4.05804 16.9723 4.31194C17.2301 4.56583 17.375 4.91019 17.375 5.26925V6.75952C18.9276 7.07186 20.3229 7.90256 21.3251 9.11116C22.3273 10.3198 22.8748 11.8321 22.875 13.3923V18.8077H23.5625C24.1095 18.8077 24.6341 19.0217 25.0209 19.4025C25.4077 19.7834 25.625 20.2999 25.625 20.8385Z" fill="#4F4C61"/>
</g>
</g>
<defs>
<clipPath id="clip0_4401_33">
<rect width="32" height="32" fill="white"/>
</clipPath>
<clipPath id="clip1_4401_33">
<rect width="33" height="33" fill="white" transform="translate(-0.5 -1.5)"/>
</clipPath>
</defs>
</svg>
