<svg width="36" height="36" viewBox="0 0 36 36" fill="none" xmlns="http://www.w3.org/2000/svg">
<path fill-rule="evenodd" clip-rule="evenodd" d="M27.163 25.7782C27.5535 25.3876 27.5535 24.7545 27.163 24.364L20.4454 17.6464L26.8094 11.2825C27.1999 10.892 27.1999 10.2588 26.8094 9.86827L25.7487 8.80761C25.3582 8.41709 24.7251 8.41709 24.3345 8.80761L17.9706 15.1716L11.6066 8.80762C11.2161 8.4171 10.5829 8.4171 10.1924 8.80762L9.13172 9.86828C8.74119 10.2588 8.74119 10.892 9.13172 11.2825L15.4957 17.6464L8.77816 24.364C8.38764 24.7545 8.38764 25.3876 8.77816 25.7782L9.83882 26.8388C10.2293 27.2293 10.8625 27.2293 11.253 26.8388L17.9706 20.1213L24.6881 26.8388C25.0786 27.2294 25.7118 27.2294 26.1023 26.8388L27.163 25.7782Z" fill="#464356"/>
</svg>
