<svg id="Layer_1" data-name="Layer 1" xmlns="http://www.w3.org/2000/svg" width="192.76" height="192.76" viewBox="0 0 192.76 192.76">
  <defs>
    <style>
      .cls-1 {
        fill: #fff;
      }

      .cls-1, .cls-2, .cls-3 {
        fill-rule: evenodd;
      }

      .cls-2 {
        fill: #231f20;
      }

      .cls-3 {
        fill: #4d90cd;
      }
    </style>
  </defs>
  <g>
    <polygon class="cls-1" points="0 0 192.76 0 192.76 192.76 0 192.76 0 0 0 0"/>
    <polygon class="cls-2" points="156.75 157.62 158.6 157.62 158.6 156.94 154.13 156.94 154.13 157.62 155.98 157.62 155.98 163.45 156.75 163.45 156.75 157.62 156.75 157.62"/>
    <polygon class="cls-2" points="159.28 163.45 159.96 163.45 159.96 157.62 162 163.45 162.59 163.45 164.72 157.62 164.72 163.45 165.5 163.45 165.5 156.94 164.34 156.94 162.39 162.38 160.35 156.94 159.28 156.94 159.28 163.45 159.28 163.45"/>
    <path class="cls-3" d="M132.39,42.5c11.76-8.16,44.71-27.11,59.48-15.06,9.72,7.87,4.38,24.39,2,31.2-.38,1.75,1.66,2,2.05.39,4.86-12.25,6.31-28.68-.78-35.09-15.65-14.09-52.49,5-69.69,15.45l6.9,3.11Z" transform="translate(-15.1 -16.1)"/>
    <path class="cls-3" d="M193.91,132.89l-55.4-.09c-2.33,11.46-10.1,17.59-22.25,17.59-15.26,0-25.76-8.36-26.44-27.7l105.16-.1c.2-4-.29-6.8-.29-9.91,0-44.23-32.27-76.69-82.13-76.69-23.13,0-41.79,6.81-56,19.63C40.45,70.4,31.51,89.74,31.51,112.09a75,75,0,0,0,29.74,59.58c14.09,10.6,32,15.94,53.94,15.94,40.33,0,68.62-22.25,78.72-54.72Z" transform="translate(-15.1 -16.1)"/>
    <path class="cls-1" d="M89.63,98.39c.29-16.81,12.34-24.1,25-24.1,13.31,0,24.1,7.67,24.1,24.1Z" transform="translate(-15.1 -16.1)"/>
    <path class="cls-1" d="M27.72,151.55c17.1-49.86,53.45-84.85,71.63-95.73-.1,0-.1.29,0,0,1.36-.68.48-2.43-1-1.75-9.72,5-47.72,24.88-70.17,64.05,1.56,1.75-2.23,31.68-.48,33.43Z" transform="translate(-15.1 -16.1)"/>
    <path class="cls-3" d="M34.32,202.48c-20-12.63-10-47,1.85-71.53l9.23,19.83c-8.35,17.88-13,36.93-4,43.73,11.66,8.75,35.67,1.07,52.77-9.33l5.54.49c-22.06,14.67-49.95,26.53-65.41,16.81Z" transform="translate(-15.1 -16.1)"/>
  </g>
</svg>
