<svg width="100" height="80" viewBox="0 0 100 80" fill="none" xmlns="http://www.w3.org/2000/svg">
<g clip-path="url(#clip0_5442_121)">
<path d="M7.90002 49.1C7.90002 53.6 11.6 57.3 16.1 57.3C20.6 57.3 24.3 53.6 24.3 49.1C24.3 44.6 20.6 40.9 16.1 40.9C11.6 40.9 7.90002 44.5 7.90002 49.1Z" fill="#38A944"/>
<path d="M32 37.3C30 37.2 28.4 38.8 28.4 40.7V42.8C28.5 50.1 26.9 55.3 23.8 57.9C23.4 58.2 23 58.6 22.6 58.8C20.7 60.1 18.5 60.8 16 60.8C13.2 60.8 10.6 59.8 8.50002 58.1C5.10002 59.7 2.40002 62.5 2.40002 67.3V73.3C2.40002 74.2 3.20002 75 4.10002 75H28C28.9 75 29.7 74.2 29.7 73.3V67.3C29.7 67 29.7 66.7 29.7 66.4C29.5 64 30.1 61.6 31.4 59.5C34.1 55.4 35.4 49.7 35.3 42.6V40.8C35.3 39.1 33.9 37.4 32 37.3Z" fill="#38A944"/>
<path d="M7.3 29.9H10.7L14.9 36.5C15.5 37.4 16.8 37.4 17.3 36.5L21.5 29.9H24.9C27.5 29.9 29.7 27.8 29.7 25.1V7.59999C29.7 4.99999 27.6 2.79999 24.9 2.79999H7.3C4.7 2.79999 2.5 4.89999 2.5 7.59999V25.1C2.5 27.8 4.7 29.9 7.3 29.9ZM8.8 14.8C9.7 13.9 11.1 13.9 12 14.8L14.2 17L20.3 10.9C21.2 9.99999 22.6 9.99999 23.5 10.9C24.4 11.8 24.4 13.2 23.5 14.1L15.9 21.7C15.5 22.1 14.9 22.4 14.3 22.4C13.7 22.4 13.2 22.2 12.7 21.7L8.8 18C7.9 17.1 7.9 15.7 8.8 14.8Z" fill="#38A944"/>
<path d="M75.7 49.1C75.7 53.6 79.4 57.3 83.9 57.3C88.4 57.3 92.1 53.6 92.1 49.1C92.1 44.6 88.4 40.9 83.9 40.9C79.4 40.9 75.7 44.5 75.7 49.1Z" fill="#BC3232"/>
<path d="M91.3999 58.2C89.3999 59.9 86.7999 60.9 83.8999 60.9C81.4999 60.9 79.1999 60.2 77.2999 58.9C76.8999 58.6 76.4999 58.3 76.0999 58C72.9999 55.4 71.3999 50.2 71.4999 42.9V40.8C71.4999 38.9 69.8999 37.3 67.8999 37.4C66.0999 37.5 64.6999 39.1 64.6999 41V42.8C64.5999 50 65.8999 55.7 68.5999 59.7C69.9999 61.7 70.4999 64.1 70.2999 66.6C70.2999 66.9 70.2999 67.2 70.2999 67.5V73.5C70.2999 74.4 71.0999 75.2 71.9999 75.2H95.6999C96.5999 75.2 97.3999 74.4 97.3999 73.5V67.5C97.4999 62.6 94.7999 59.8 91.3999 58.2Z" fill="#BC3232"/>
<path d="M75.1 29.9H78.5L82.7 36.5C83.3 37.4 84.6 37.4 85.1 36.5L89.3 29.9H92.7C95.3 29.9 97.5 27.8 97.5 25.1V7.59999C97.5 4.99999 95.4 2.79999 92.7 2.79999H75.1C72.5 2.79999 70.3 4.89999 70.3 7.59999V25.1C70.4 27.8 72.5 29.9 75.1 29.9ZM77.8 13.4C76.9 12.5 76.9 11.1 77.8 10.2C78.7 9.29999 80.1 9.29999 81 10.2L83.9 13.1L86.8 10.2C87.7 9.29999 89.1 9.29999 90 10.2C90.9 11.1 90.9 12.5 90 13.4L87.1 16.3L90 19.2C90.9 20.1 90.9 21.5 90 22.4C89.6 22.8 89 23.1 88.4 23.1C87.8 23.1 87.3 22.9 86.8 22.4L83.9 19.5L81 22.5C80.6 22.9 80 23.2 79.4 23.2C78.8 23.2 78.3 23 77.8 22.5C76.9 21.6 76.9 20.2 77.8 19.3L80.7 16.4L77.8 13.4Z" fill="#BC3232"/>
<path d="M57.7 58.7C55.6 60.4 52.9 61.5 50 61.5C47.1 61.5 44.4 60.5 42.3 58.8C38.8 60.4 36 63.3 36 68.3V73.6C36 74.6 36.8 75.4 37.8 75.4H62.2C63.2 75.4 63.9 74.6 63.9 73.6V68.3C63.9 63.2 61.2 60.3 57.7 58.7Z" fill="#C7AA37"/>
<path d="M41.6 49.3C41.6 53.9 45.4 57.7 50 57.7C54.6 57.7 58.4 53.9 58.4 49.3C58.4 44.7 54.6 40.9 50 40.9C45.4 40.9 41.6 44.6 41.6 49.3Z" fill="#C7AA37"/>
<path d="M41.2 29.9H44.6L48.8 36.5C49.4 37.4 50.7 37.4 51.2 36.5L55.4 29.9H58.8C61.4 29.9 63.6 27.8 63.6 25.1V7.59999C63.6 4.99999 61.5 2.79999 58.8 2.79999H41.2C38.6 2.79999 36.4 4.89999 36.4 7.59999V25.1C36.5 27.8 38.6 29.9 41.2 29.9ZM50.3 28.1C49.1 28.1 48.1 27.1 48.1 25.9C48.1 24.7 49.1 23.7 50.3 23.7C51.5 23.7 52.5 24.7 52.5 25.9C52.5 27.1 51.5 28.1 50.3 28.1ZM50.1 6.89999C52.8 6.89999 55 8.19999 56.2 10.4C57.2 12.5 57.1 14.9 55.7 16.7C54.8 17.9 54 18.5 53.3 18.9C52.6 19.4 52.3 19.6 52.2 20.8C52.2 21.3 51.7 21.7 51.2 21.7H49.6C49 21.7 48.5 21.2 48.6 20.6C48.8 17.8 49.9 16.8 51.3 15.9C51.9 15.5 52.3 15.2 52.8 14.5C53.3 13.8 53.4 12.8 53 12C52.7 11.4 52 10.5 50.2 10.5C47.9 10.5 47.2 12 47 13.1C46.9 13.6 46.5 14 46 14H44.4C43.8 14 43.3 13.4 43.4 12.8C43.6 9.79999 45.8 6.89999 50.1 6.89999Z" fill="#C7AA37"/>
</g>
<defs>
<clipPath id="clip0_5442_121">
<rect width="100" height="80" fill="white"/>
</clipPath>
</defs>
</svg>
